<svg width="141" height="33" viewBox="0 0 141 33" fill="none" xmlns="http://www.w3.org/2000/svg">
<path d="M31.8999 16.0501L28.0984 9.0918H33.3993L37.0944 15.839L37.2126 16.0478L37.0944 16.2565L33.3993 23.0002H28.0984L31.8999 16.0501ZM40.8924 16.0501L37.092 9.0918H42.3917L46.0881 15.839L46.2063 16.0478L46.0881 16.2565L42.3917 23.0002H37.092L40.8924 16.0501Z" fill="#000066"/>
<path d="M0 0H15.5361V4.81188H5.17555V9.09657H15.5361V13.9084H5.17555V23.005H0V0Z" fill="#000066"/>
<path d="M9.6062 9.09668H25.1482V13.9086H14.7865V18.1944H25.1482V23.0051H14.7865V32.1029H9.6062V9.09668Z" fill="#000066"/>
<path d="M52.5914 16.6561C52.6108 17.0415 52.7101 17.4186 52.8831 17.7637C53.0561 18.1088 53.299 18.4144 53.5964 18.6611C54.2176 19.1541 55.0382 19.4005 56.0583 19.4005C56.9041 19.4005 57.5895 19.2256 58.1145 18.8757C58.3695 18.7175 58.5787 18.4957 58.7214 18.2322C58.864 17.9687 58.9353 17.6726 58.9281 17.3732C58.9378 17.1753 58.9019 16.9777 58.8232 16.7958C58.7445 16.6138 58.625 16.4523 58.474 16.3235C58.1871 16.0531 57.7724 15.8463 57.2301 15.7032C56.7035 15.5459 55.8829 15.3553 54.7682 15.1312C53.8183 14.9677 52.8884 14.704 51.9942 14.3445C51.2645 14.0267 50.6301 13.5252 50.1532 12.8892C49.6912 12.2382 49.4603 11.38 49.4603 10.3146C49.4483 9.38923 49.7238 8.48286 50.2489 7.71995C50.8161 6.93597 51.5838 6.31813 52.4719 5.93083C53.5029 5.48645 54.6148 5.25918 55.7379 5.26324C56.8611 5.2673 57.9713 5.5026 58.999 5.95441C59.9282 6.35179 60.7306 6.99543 61.319 7.81548C61.8892 8.59894 62.1985 9.54109 62.2034 10.5092H58.6892C58.6614 10.1763 58.5665 9.85245 58.4102 9.557C58.254 9.26154 58.0396 9.00055 57.7799 8.78965C57.2541 8.34384 56.5608 8.12094 55.7 8.12094C54.903 8.12094 54.2653 8.28801 53.7868 8.62217C53.3083 8.95633 53.0695 9.4332 53.0703 10.0528C53.06 10.2485 53.0933 10.4442 53.1677 10.6256C53.2421 10.8071 53.3558 10.9699 53.5007 11.1024C53.8635 11.3794 54.2779 11.5818 54.7198 11.698C55.2463 11.8419 56.0595 12.0168 57.1591 12.2228C58.1245 12.387 59.07 12.651 59.9804 13.0107C60.718 13.291 61.3575 13.78 61.8203 14.4177C62.2988 15.0372 62.5381 15.8718 62.5381 16.9215C62.5498 17.8998 62.2573 18.8578 61.7009 19.6635C61.1444 20.4584 60.3636 21.0875 59.3585 21.5506C58.3069 22.0222 57.1638 22.2558 56.011 22.2346C54.6709 22.2346 53.4754 21.996 52.4246 21.5187C51.4445 21.0724 50.6022 20.3724 49.9853 19.4914C49.3992 18.6424 49.0828 17.6373 49.0771 16.6066L52.5914 16.6561Z" fill="#3C7AF5"/>
<path d="M63.9487 15.984C63.9487 14.7126 64.2037 13.6076 64.7138 12.6688C65.212 11.7438 65.9675 10.982 66.8895 10.4751C67.8307 9.94991 68.9146 9.68769 70.1412 9.68848C71.3851 9.68848 72.4769 9.93497 73.4165 10.428C74.3444 10.878 75.1182 11.5916 75.6407 12.4789C76.1823 13.3532 76.4613 14.3863 76.4779 15.5783C76.4818 15.9622 76.4498 16.3456 76.3821 16.7235H67.4629V16.819C67.5418 17.7098 67.8287 18.4092 68.3238 18.9171C68.8188 19.4251 69.496 19.681 70.3552 19.6849C71.041 19.6849 71.607 19.5418 72.0532 19.2556C72.5158 18.9533 72.8417 18.4827 72.9613 17.9441H76.2851C76.1633 18.7418 75.8425 19.4961 75.3522 20.1378C74.8362 20.8074 74.1629 21.3401 73.3917 21.6887C72.5081 22.0679 71.5534 22.2541 70.5917 22.2347C69.2216 22.2347 68.0341 21.9804 67.029 21.4717C66.068 20.9873 65.2701 20.2329 64.7339 19.3016C64.2112 18.3479 63.9495 17.242 63.9487 15.984ZM73.1056 14.5298C72.9944 13.7821 72.6838 13.2097 72.1738 12.8127C71.6795 12.3991 71.0489 12.1923 70.2819 12.1923C69.6025 12.1737 68.9396 12.4026 68.4172 12.8362C67.9229 13.249 67.6281 13.8136 67.5327 14.5298H73.1056Z" fill="#3C7AF5"/>
<path d="M90.4909 9.83626V21.7362C90.4909 23.3425 89.9568 24.6226 88.8887 25.5763C87.8206 26.53 86.1628 27.0069 83.9153 27.0069C82.1811 27.0069 80.7783 26.6252 79.707 25.8617C78.6357 25.0982 78.0623 24.0171 77.9866 22.6184H81.3814C81.5153 23.1699 81.8466 23.6535 82.3131 23.9782C82.7916 24.2927 83.4136 24.45 84.179 24.45C85.1344 24.45 85.8754 24.2117 86.402 23.7353C86.9286 23.2588 87.1915 22.5512 87.1907 21.6124V20.3292C86.2984 21.4583 85.0312 22.0228 83.3892 22.0228C82.3653 22.0383 81.3566 21.7745 80.4721 21.2598C79.6081 20.7464 78.9047 20.0031 78.4406 19.1133C77.9621 18.1761 77.7229 17.0871 77.7229 15.8464C77.7229 14.6222 77.9621 13.5411 78.4406 12.6031C78.8989 11.703 79.6032 10.9507 80.4721 10.433C81.3661 9.91948 82.3824 9.65587 83.414 9.66997C85.0229 9.66997 86.298 10.2899 87.2392 11.5299L87.5253 9.83626H90.4909ZM84.179 19.3279C85.0871 19.3279 85.8124 19.0099 86.3547 18.3738C86.8971 17.7377 87.1678 16.9122 87.1671 15.8971C87.1671 14.864 86.8963 14.0215 86.3547 13.3697C85.8132 12.7179 85.0879 12.392 84.179 12.392C83.2701 12.392 82.5366 12.7179 81.9785 13.3697C81.4369 14.005 81.1662 14.8396 81.1662 15.8735C81.1662 16.9074 81.4369 17.7421 81.9785 18.3773C82.5366 19.0111 83.2701 19.3279 84.179 19.3279Z" fill="#3C7AF5"/>
<path d="M104.528 9.83594V22.0932H101.543L101.232 20.6155C100.817 21.1116 100.305 21.5175 99.726 21.8078C99.1529 22.0925 98.4517 22.2348 97.6224 22.2348C96.187 22.2348 95.0152 21.7976 94.107 20.9233C93.1989 20.0333 92.7449 18.5547 92.7449 16.4876V9.83594H96.116V16.0867C96.116 17.2 96.3072 18.0425 96.6895 18.6141C97.0884 19.1707 97.6942 19.4491 98.5069 19.4491C99.3512 19.4491 100.005 19.1389 100.467 18.5185C100.93 17.8825 101.161 17.0003 101.16 15.872V9.83594H104.528Z" fill="#3C7AF5"/>
<path d="M114.359 9.83594V12.8882H113.02C112.063 12.8882 111.362 13.1744 110.917 13.7468C110.471 14.3192 110.248 15.0983 110.247 16.0843V22.0932H106.875V9.83594H109.936L110.247 11.6722C110.574 11.1079 111.044 10.6394 111.609 10.3136C112.151 9.99516 112.876 9.83594 113.785 9.83594H114.359Z" fill="#3C7AF5"/>
<path d="M121.469 22.2348C120.177 22.2348 119.038 21.9805 118.05 21.4718C117.096 20.9644 116.307 20.1945 115.779 19.2533C115.252 18.2988 114.989 17.202 114.99 15.9629C114.991 14.7237 115.254 13.6265 115.779 12.6712C116.304 11.734 117.094 10.9713 118.05 10.4776C119.039 9.95235 120.178 9.69013 121.469 9.69092C122.759 9.69171 123.891 9.95392 124.865 10.4776C125.827 10.9623 126.619 11.7273 127.136 12.6712C127.678 13.6249 127.948 14.7222 127.948 15.9629C127.948 17.2209 127.678 18.3256 127.136 19.2769C126.611 20.2152 125.822 20.9792 124.866 21.4741C123.892 21.9813 122.76 22.2348 121.469 22.2348ZM121.469 19.4916C122.41 19.4916 123.151 19.1657 123.693 18.5139C124.251 17.8629 124.53 17.0125 124.53 15.9629C124.53 14.9132 124.251 14.0625 123.693 13.4107C123.151 12.7597 122.41 12.4338 121.469 12.433C120.546 12.433 119.804 12.7589 119.246 13.4107C118.704 14.0633 118.433 14.914 118.432 15.9629C118.431 17.0117 118.702 17.8621 119.246 18.5139C119.804 19.168 120.545 19.4947 121.469 19.4939V19.4916Z" fill="#3C7AF5"/>
<path d="M132.461 18.016C132.483 18.2803 132.565 18.5361 132.702 18.7635C132.839 18.9909 133.026 19.1839 133.249 19.3275C133.727 19.6617 134.341 19.8287 135.091 19.8287C135.807 19.8287 136.373 19.7171 136.787 19.4938C137.203 19.2579 137.41 18.9242 137.409 18.4925C137.409 18.1753 137.314 17.9358 137.123 17.7778C136.885 17.5985 136.605 17.4831 136.31 17.4429C135.96 17.3642 135.386 17.277 134.588 17.181C133.674 17.0733 132.77 16.8899 131.886 16.6326C131.227 16.4458 130.632 16.0828 130.164 15.583C129.734 15.1065 129.519 14.4708 129.52 13.6759C129.506 12.9257 129.732 12.1905 130.164 11.5766C130.64 10.9349 131.286 10.4392 132.03 10.146C132.904 9.79766 133.839 9.62723 134.78 9.64478C136.453 9.6613 137.8 10.019 138.82 10.718C139.313 11.0328 139.722 11.4614 140.013 11.9674C140.305 12.4735 140.47 13.0421 140.494 13.6252H137.29C137.243 13.1645 136.995 12.791 136.548 12.5048C136.118 12.2029 135.56 12.0519 134.875 12.0519C134.238 12.0519 133.72 12.1698 133.322 12.4057C132.938 12.6416 132.747 12.9596 132.747 13.3598C132.739 13.4847 132.764 13.6094 132.818 13.7221C132.873 13.8348 132.955 13.9318 133.058 14.0038C133.305 14.162 133.582 14.2676 133.871 14.314C134.206 14.3776 134.763 14.4492 135.545 14.5286C137.2 14.7189 138.467 15.0766 139.346 15.6018C140.238 16.1098 140.685 16.9919 140.685 18.2484C140.696 19.0094 140.443 19.7508 139.968 20.3465C139.505 20.9511 138.852 21.4201 138.008 21.7535C137.178 22.068 136.214 22.2252 135.114 22.2252C133.409 22.2252 132.022 21.8514 130.954 21.1037C130.445 20.7586 130.025 20.2975 129.73 19.7585C129.435 19.2196 129.272 18.6182 129.256 18.0042L132.461 18.016Z" fill="#3C7AF5"/>
</svg>
