<svg width="183" height="40" viewBox="0 0 183 40" fill="none" xmlns="http://www.w3.org/2000/svg">
<g id="Group 136">
<g id="Group 13803">
<path id="Vector" d="M41.3584 19.9984L36.4297 11.3282H43.3023L48.0931 19.7353L48.2464 19.9954L48.0931 20.2555L43.3023 28.6582H36.4297L41.3584 19.9984ZM53.0172 19.9984L48.09 11.3282H54.9611L59.7534 19.7353L59.9067 19.9954L59.7534 20.2555L54.9611 28.6582H48.09L53.0172 19.9984Z" fill="#004BB7"/>
<g id="Group 135">
<path id="Vector_2" d="M0 0H20.1426V5.99564H6.71012V11.3344H20.1426V17.33H6.71012V28.6645H0V0Z" fill="white"/>
<path id="Vector_3" d="M12.4545 11.3342H32.6048V17.3298H19.1707V22.67H32.6048V28.6642H19.1707V40.0001H12.4545V11.3342Z" fill="white"/>
</g>
</g>
<g id="Group 134">
<path id="Vector_4" d="M68.1849 20.7542C68.2101 21.2344 68.3388 21.7043 68.5631 22.1343C68.7874 22.5643 69.1024 22.945 69.488 23.2524C70.2934 23.8667 71.3573 24.1738 72.6798 24.1738C73.7764 24.1738 74.6651 23.9558 75.3458 23.5198C75.6763 23.3228 75.9475 23.0464 76.1325 22.718C76.3175 22.3897 76.4099 22.0207 76.4005 21.6477C76.4131 21.4011 76.3666 21.1549 76.2645 20.9282C76.1625 20.7015 76.0076 20.5002 75.8118 20.3398C75.4398 20.0028 74.9022 19.7451 74.199 19.5668C73.5163 19.3709 72.4524 19.1333 71.0072 18.8541C69.7756 18.6504 68.57 18.3218 67.4107 17.8739C66.4646 17.478 65.6421 16.8531 65.0238 16.0606C64.4249 15.2494 64.1254 14.1801 64.1254 12.8526C64.1099 11.6996 64.4671 10.5703 65.148 9.61965C65.8833 8.64281 66.8786 7.87297 68.0301 7.39039C69.3668 6.8367 70.8083 6.55351 72.2645 6.55857C73.7206 6.56363 75.16 6.85682 76.4925 7.41978C77.6972 7.91492 78.7374 8.7169 79.5003 9.73868C80.2395 10.7149 80.6406 11.8888 80.647 13.0951H76.0908C76.0547 12.6803 75.9317 12.2768 75.7291 11.9086C75.5266 11.5405 75.2486 11.2153 74.9119 10.9525C74.2302 10.397 73.3313 10.1193 72.2153 10.1193C71.182 10.1193 70.3552 10.3275 69.7348 10.7438C69.1145 11.1602 68.8048 11.7544 68.8058 12.5264C68.7925 12.7703 68.8357 13.0141 68.9322 13.2402C69.0286 13.4663 69.176 13.6691 69.3638 13.8342C69.8343 14.1794 70.3715 14.4316 70.9444 14.5763C71.6271 14.7556 72.6813 14.9736 74.1071 15.2303C75.3586 15.4349 76.5845 15.7638 77.7649 16.2119C78.7211 16.5612 79.5502 17.1705 80.1503 17.9651C80.7707 18.737 81.0809 19.777 81.0809 21.0849C81.0961 22.3039 80.7169 23.4975 79.9955 24.5015C79.2739 25.4919 78.2616 26.2757 76.9585 26.8527C75.5952 27.4404 74.113 27.7314 72.6185 27.705C70.881 27.705 69.3311 27.4077 67.9688 26.813C66.6981 26.2569 65.606 25.3847 64.8061 24.2869C64.0463 23.2292 63.636 21.9767 63.6287 20.6925L68.1849 20.7542Z" fill="white"/>
<path id="Vector_5" d="M82.9101 19.9176C82.9101 18.3334 83.2407 16.9565 83.902 15.7868C84.5479 14.6342 85.5274 13.685 86.7228 13.0534C87.9431 12.399 89.3484 12.0723 90.9386 12.0733C92.5514 12.0733 93.9669 12.3804 95.1852 12.9947C96.3881 13.5555 97.3913 14.4445 98.0688 15.5502C98.7709 16.6396 99.1327 17.9269 99.1542 19.4121C99.1593 19.8904 99.1177 20.3681 99.03 20.839H87.4663V20.958C87.5685 22.068 87.9405 22.9394 88.5823 23.5723C89.2242 24.2051 90.1021 24.524 91.2161 24.5289C92.1053 24.5289 92.8391 24.3506 93.4176 23.994C94.0173 23.6174 94.4398 23.031 94.5949 22.3599H98.9043C98.7464 23.3538 98.3304 24.2936 97.6947 25.0932C97.0258 25.9276 96.1528 26.5913 95.153 27.0256C94.0074 27.4982 92.7696 27.7301 91.5227 27.706C89.7464 27.706 88.2067 27.3891 86.9037 26.7552C85.6577 26.1517 84.6233 25.2118 83.928 24.0513C83.2504 22.863 82.9111 21.4851 82.9101 19.9176ZM94.782 18.1057C94.6379 17.174 94.2352 16.4608 93.5739 15.966C92.9331 15.4507 92.1155 15.1931 91.1211 15.1931C90.2402 15.1699 89.3808 15.4551 88.7035 15.9954C88.0626 16.5098 87.6804 17.2132 87.5567 18.1057H94.782Z" fill="white"/>
<path id="Vector_6" d="M117.322 12.2567V27.0841C117.322 29.0856 116.63 30.6805 115.245 31.8689C113.86 33.0573 111.711 33.6514 108.797 33.6514C106.549 33.6514 104.73 33.1758 103.341 32.2245C101.952 31.2733 101.209 29.9262 101.11 28.1833H105.512C105.685 28.8705 106.115 29.4731 106.72 29.8777C107.34 30.2696 108.147 30.4655 109.139 30.4655C110.378 30.4655 111.338 30.1687 112.021 29.575C112.704 28.9813 113.045 28.0996 113.044 26.9298V25.331C111.887 26.7378 110.244 27.4412 108.115 27.4412C106.787 27.4606 105.48 27.1318 104.333 26.4905C103.213 25.8508 102.301 24.9247 101.699 23.8159C101.079 22.6482 100.769 21.2913 100.769 19.7454C100.769 18.22 101.079 16.8729 101.699 15.7042C102.293 14.5827 103.206 13.6453 104.333 13.0003C105.492 12.3604 106.81 12.0319 108.147 12.0495C110.233 12.0495 111.886 12.822 113.106 14.3669L113.477 12.2567H117.322ZM109.139 24.0834C110.316 24.0834 111.257 23.6871 111.96 22.8945C112.663 22.102 113.014 21.0733 113.013 19.8086C113.013 18.5213 112.662 17.4715 111.96 16.6594C111.258 15.8472 110.317 15.4411 109.139 15.4411C107.961 15.4411 107.01 15.8472 106.286 16.6594C105.584 17.4509 105.233 18.4909 105.233 19.7792C105.233 21.0674 105.584 22.1074 106.286 22.899C107.01 23.6886 107.961 24.0834 109.139 24.0834Z" fill="white"/>
<path id="Vector_7" d="M135.521 12.2557V27.5285H131.652L131.249 25.6872C130.711 26.3054 130.046 26.811 129.295 27.1728C128.552 27.5275 127.643 27.7048 126.568 27.7048C124.707 27.7048 123.188 27.1601 122.01 26.0707C120.833 24.9617 120.244 23.1194 120.244 20.5438V12.2557H124.615V20.0442C124.615 21.4314 124.863 22.4811 125.359 23.1934C125.876 23.887 126.661 24.2338 127.715 24.2338C128.809 24.2338 129.657 23.8473 130.257 23.0743C130.857 22.2818 131.156 21.1826 131.155 19.7767V12.2557H135.521Z" fill="white"/>
<path id="Vector_8" d="M148.267 12.2557V16.0589H146.531C145.291 16.0589 144.382 16.4155 143.804 17.1287C143.227 17.8419 142.937 18.8127 142.936 20.0413V27.5285H138.564V12.2557H142.533L142.936 14.5438C143.36 13.8407 143.969 13.2568 144.702 12.8509C145.405 12.4541 146.345 12.2557 147.523 12.2557H148.267Z" fill="white"/>
<path id="Vector_9" d="M157.485 27.7048C155.811 27.7048 154.333 27.3879 153.053 26.7541C151.815 26.1219 150.793 25.1625 150.108 23.9899C149.425 22.8006 149.084 21.4339 149.085 19.8899C149.086 18.3459 149.427 16.9788 150.108 15.7885C150.789 14.6208 151.813 13.6704 153.053 13.0552C154.334 12.4008 155.812 12.074 157.485 12.075C159.158 12.076 160.625 12.4027 161.888 13.0552C163.135 13.6592 164.162 14.6124 164.833 15.7885C165.535 16.9768 165.886 18.344 165.886 19.8899C165.886 21.4574 165.535 22.8339 164.833 24.0193C164.152 25.1884 163.129 26.1403 161.889 26.757C160.627 27.3889 159.159 27.7048 157.485 27.7048ZM157.485 24.2867C158.705 24.2867 159.666 23.8807 160.368 23.0685C161.092 22.2573 161.454 21.1978 161.454 19.8899C161.454 18.582 161.092 17.522 160.368 16.7099C159.666 15.8987 158.705 15.4926 157.485 15.4916C156.288 15.4916 155.327 15.8977 154.603 16.7099C153.9 17.523 153.549 18.583 153.548 19.8899C153.547 21.1968 153.898 22.2563 154.603 23.0685C155.326 23.8836 156.287 24.2906 157.485 24.2897V24.2867Z" fill="white"/>
<path id="Vector_10" d="M171.736 22.4497C171.764 22.779 171.871 23.0977 172.048 23.381C172.226 23.6644 172.469 23.9048 172.759 24.0838C173.378 24.5002 174.173 24.7084 175.145 24.7084C176.074 24.7084 176.808 24.5692 177.345 24.291C177.884 23.9971 178.153 23.5812 178.152 23.0434C178.152 22.6481 178.028 22.3498 177.781 22.1529C177.472 21.9294 177.109 21.7857 176.726 21.7355C176.272 21.6375 175.528 21.5288 174.494 21.4093C173.308 21.275 172.137 21.0465 170.991 20.726C170.136 20.4931 169.365 20.0409 168.759 19.4181C168.201 18.8244 167.922 18.0323 167.923 17.0419C167.905 16.1071 168.198 15.1911 168.759 14.4261C169.375 13.6266 170.213 13.0089 171.178 12.6436C172.311 12.2095 173.523 11.9972 174.742 12.019C176.912 12.0396 178.658 12.4854 179.981 13.3563C180.619 13.7485 181.15 14.2825 181.528 14.9131C181.906 15.5436 182.12 16.2521 182.151 16.9787H177.997C177.936 16.4046 177.615 15.9392 177.036 15.5826C176.478 15.2064 175.755 15.0183 174.866 15.0183C174.04 15.0183 173.368 15.1653 172.852 15.4592C172.355 15.7531 172.107 16.1494 172.107 16.648C172.097 16.8036 172.129 16.959 172.2 17.0995C172.27 17.2399 172.377 17.3607 172.51 17.4504C172.83 17.6475 173.189 17.7791 173.565 17.8369C173.998 17.9162 174.721 18.0054 175.734 18.1043C177.88 18.3414 179.523 18.7872 180.663 19.4416C181.82 20.0745 182.398 21.1737 182.398 22.7392C182.413 23.6874 182.085 24.6113 181.469 25.3535C180.869 26.1068 180.022 26.6912 178.927 27.1066C177.852 27.4985 176.602 27.6944 175.176 27.6944C172.965 27.6944 171.168 27.2286 169.783 26.2969C169.122 25.8669 168.578 25.2924 168.195 24.6209C167.813 23.9493 167.602 23.2 167.581 22.435L171.736 22.4497Z" fill="white"/>
</g>
</g>
</svg>
